
<svg width="1280" height="800" xmlns="http://www.w3.org/2000/svg">
  <rect width="100%" height="100%" fill="#f5f5f5"/>
  
  <!-- Header -->
  <rect x="0" y="0" width="1280" height="64" fill="#1976d2"/>
  <text x="24" y="40" font-family="Arial" font-size="24" font-weight="bold" fill="white">PSP Dashboard - Session Details</text>
  
  <!-- Sidebar -->
  <rect x="0" y="64" width="240" height="736" fill="#ffffff"/>
  <rect x="0" y="64" width="240" height="736" fill="#ffffff" stroke="#e0e0e0" stroke-width="1"/>
  
  <!-- Navigation Items -->
  <rect x="12" y="100" width="216" height="40" rx="4" fill="transparent"/>
  <text x="56" y="125" font-family="Arial" font-size="16" fill="#333333">Dashboard</text>
  
  <rect x="12" y="150" width="216" height="40" rx="4" fill="transparent"/>
  <text x="56" y="175" font-family="Arial" font-size="16" fill="#333333">Sessions</text>
  
  <rect x="12" y="200" width="216" height="40" rx="4" fill="transparent"/>
  <text x="56" y="225" font-family="Arial" font-size="16" fill="#333333">Recorder</text>
  
  <rect x="12" y="250" width="216" height="40" rx="4" fill="transparent"/>
  <text x="56" y="275" font-family="Arial" font-size="16" fill="#333333">History</text>
  
  <rect x="12" y="300" width="216" height="40" rx="4" fill="transparent"/>
  <text x="56" y="325" font-family="Arial" font-size="16" fill="#333333">Settings</text>
  
  <!-- Content Area -->
  <rect x="260" y="84" width="1000" height="60" rx="4" fill="#ffffff"/>
  <text x="280" y="124" font-family="Arial" font-size="24" fill="#333333">Session Details</text>
  
  <!-- Page Content - Different for each page -->
  
        <!-- Session Card -->
        <rect x="260" y="160" width="940" height="120" rx="4" fill="#ffffff" stroke="#e0e0e0" stroke-width="1"/>
        <text x="280" y="190" font-family="Arial" font-size="18" fill="#333333">Login Session</text>
        <rect x="280" y="205" width="80" height="30" rx="15" fill="#e8f5e9"/>
        <text x="295" y="225" font-family="Arial" font-size="14" fill="#2e7d32">Active</text>
        <text x="380" y="225" font-family="Arial" font-size="14" fill="#757575">Created: 2025-05-15 • Framework: Playwright</text>
        <text x="280" y="255" font-family="Arial" font-size="14" fill="#757575">ID: sess_a1b2c3d4e5f6</text>
        
        <!-- Tabs -->
        <rect x="260" y="300" width="940" height="50" rx="4" fill="#ffffff" stroke="#e0e0e0" stroke-width="1"/>
        <rect x="260" y="300" width="156" height="50" fill="#e3f2fd"/>
        <text x="320" y="330" font-family="Arial" font-size="14" font-weight="bold" fill="#1976d2">Metadata</text>
        <text x="476" y="330" font-family="Arial" font-size="14" fill="#757575">Cookies</text>
        <text x="576" y="330" font-family="Arial" font-size="14" fill="#757575">Storage</text>
        <text x="676" y="330" font-family="Arial" font-size="14" fill="#757575">Network</text>
        <text x="776" y="330" font-family="Arial" font-size="14" fill="#757575">DOM</text>
        <text x="876" y="330" font-family="Arial" font-size="14" fill="#757575">Recording</text>
        
        <!-- Content -->
        <rect x="260" y="350" width="940" height="300" rx="4" fill="#ffffff" stroke="#e0e0e0" stroke-width="1"/>
        <text x="280" y="380" font-family="Arial" font-size="16" font-weight="bold" fill="#333333">Session Metadata</text>
        
        <!-- Metadata Key-Value Pairs -->
        <text x="280" y="420" font-family="Arial" font-size="14" font-weight="bold" fill="#757575">Browser:</text>
        <text x="380" y="420" font-family="Arial" font-size="14" fill="#333333">Chrome 112.0.5615.121</text>
        
        <text x="280" y="450" font-family="Arial" font-size="14" font-weight="bold" fill="#757575">OS:</text>
        <text x="380" y="450" font-family="Arial" font-size="14" fill="#333333">macOS 13.4</text>
        
        <text x="280" y="480" font-family="Arial" font-size="14" font-weight="bold" fill="#757575">URL:</text>
        <text x="380" y="480" font-family="Arial" font-size="14" fill="#333333">https://example.com/login</text>
        
        <text x="280" y="510" font-family="Arial" font-size="14" font-weight="bold" fill="#757575">User Agent:</text>
        <text x="380" y="510" font-family="Arial" font-size="14" fill="#333333">Mozilla/5.0 (Macintosh; Intel Mac OS X 10_15_7)</text>
        
        <text x="280" y="540" font-family="Arial" font-size="14" font-weight="bold" fill="#757575">Created:</text>
        <text x="380" y="540" font-family="Arial" font-size="14" fill="#333333">2025-05-15 14:32:10</text>
        
        <text x="280" y="570" font-family="Arial" font-size="14" font-weight="bold" fill="#757575">Expires:</text>
        <text x="380" y="570" font-family="Arial" font-size="14" fill="#333333">2025-05-22 14:32:10 (7 days)</text>
        
        <text x="280" y="600" font-family="Arial" font-size="14" font-weight="bold" fill="#757575">Size:</text>
        <text x="380" y="600" font-family="Arial" font-size="14" fill="#333333">256 KB</text>
        
        <!-- Actions -->
        <rect x="260" y="670" width="940" height="60" rx="4" fill="#ffffff" stroke="#e0e0e0" stroke-width="1"/>
        <rect x="280" y="685" width="120" height="30" rx="15" fill="#1976d2"/>
        <text x="305" y="705" font-family="Arial" font-size="14" fill="white">Edit Session</text>
        
        <rect x="420" y="685" width="120" height="30" rx="15" fill="#f5f5f5"/>
        <text x="445" y="705" font-family="Arial" font-size="14" fill="#333333">Export</text>
        
        <rect x="560" y="685" width="120" height="30" rx="15" fill="#f5f5f5"/>
        <text x="585" y="705" font-family="Arial" font-size="14" fill="#333333">Share</text>
        
        <rect x="1060" y="685" width="120" height="30" rx="15" fill="#ffebee"/>
        <text x="1085" y="705" font-family="Arial" font-size="14" fill="#c62828">Delete</text>
      
  
  <!-- Footer -->
  <rect x="0" y="760" width="1280" height="40" fill="#f5f5f5"/>
  <text x="640" y="785" font-family="Arial" font-size="14" fill="#757575" text-anchor="middle">PSP v0.1.0 | Persistent Sessions Protocol</text>
</svg>
  