
<svg width="1280" height="800" xmlns="http://www.w3.org/2000/svg">
  <rect width="100%" height="100%" fill="#f5f5f5"/>
  
  <!-- Header -->
  <rect x="0" y="0" width="1280" height="64" fill="#1976d2"/>
  <text x="24" y="40" font-family="Arial" font-size="24" font-weight="bold" fill="white">PSP Dashboard - Settings</text>
  
  <!-- Sidebar -->
  <rect x="0" y="64" width="240" height="736" fill="#ffffff"/>
  <rect x="0" y="64" width="240" height="736" fill="#ffffff" stroke="#e0e0e0" stroke-width="1"/>
  
  <!-- Navigation Items -->
  <rect x="12" y="100" width="216" height="40" rx="4" fill="transparent"/>
  <text x="56" y="125" font-family="Arial" font-size="16" fill="#333333">Dashboard</text>
  
  <rect x="12" y="150" width="216" height="40" rx="4" fill="transparent"/>
  <text x="56" y="175" font-family="Arial" font-size="16" fill="#333333">Sessions</text>
  
  <rect x="12" y="200" width="216" height="40" rx="4" fill="transparent"/>
  <text x="56" y="225" font-family="Arial" font-size="16" fill="#333333">Recorder</text>
  
  <rect x="12" y="250" width="216" height="40" rx="4" fill="transparent"/>
  <text x="56" y="275" font-family="Arial" font-size="16" fill="#333333">History</text>
  
  <rect x="12" y="300" width="216" height="40" rx="4" fill="#e3f2fd"/>
  <text x="56" y="325" font-family="Arial" font-size="16" fill="#333333">Settings</text>
  
  <!-- Content Area -->
  <rect x="260" y="84" width="1000" height="60" rx="4" fill="#ffffff"/>
  <text x="280" y="124" font-family="Arial" font-size="24" fill="#333333">Settings</text>
  
  <!-- Page Content - Different for each page -->
  
        <!-- Settings Page -->
        <rect x="260" y="160" width="940" height="520" rx="4" fill="#ffffff" stroke="#e0e0e0" stroke-width="1"/>
        
        <!-- Settings Categories -->
        <rect x="280" y="180" width="240" height="480" rx="4" fill="#f5f5f5"/>
        <rect x="280" y="180" width="240" height="60" fill="#e3f2fd"/>
        <text x="310" y="215" font-family="Arial" font-size="16" fill="#1976d2">General</text>
        
        <rect x="280" y="240" width="240" height="60" fill="#f5f5f5"/>
        <text x="310" y="275" font-family="Arial" font-size="16" fill="#333333">Storage</text>
        
        <rect x="280" y="300" width="240" height="60" fill="#f5f5f5"/>
        <text x="310" y="335" font-family="Arial" font-size="16" fill="#333333">API Keys</text>
        
        <rect x="280" y="360" width="240" height="60" fill="#f5f5f5"/>
        <text x="310" y="395" font-family="Arial" font-size="16" fill="#333333">Notifications</text>
        
        <rect x="280" y="420" width="240" height="60" fill="#f5f5f5"/>
        <text x="310" y="455" font-family="Arial" font-size="16" fill="#333333">Security</text>
        
        <rect x="280" y="480" width="240" height="60" fill="#f5f5f5"/>
        <text x="310" y="515" font-family="Arial" font-size="16" fill="#333333">Advanced</text>
        
        <!-- Settings Content -->
        <text x="560" y="215" font-family="Arial" font-size="20" font-weight="bold" fill="#333333">General Settings</text>
        
        <!-- Setting 1 -->
        <rect x="560" y="250" width="600" height="60" rx="4" fill="#f5f5f5"/>
        <text x="580" y="285" font-family="Arial" font-size="16" fill="#333333">Dark Mode</text>
        <rect x="1080" y="265" width="60" height="30" rx="15" fill="#1976d2"/>
        <circle cx="1120" cy="280" r="12" fill="white"/>
        
        <!-- Setting 2 -->
        <rect x="560" y="330" width="600" height="60" rx="4" fill="#f5f5f5"/>
        <text x="580" y="365" font-family="Arial" font-size="16" fill="#333333">Auto-save Sessions</text>
        <rect x="1080" y="345" width="60" height="30" rx="15" fill="#1976d2"/>
        <circle cx="1120" cy="360" r="12" fill="white"/>
        
        <!-- Setting 3 -->
        <rect x="560" y="410" width="600" height="60" rx="4" fill="#f5f5f5"/>
        <text x="580" y="445" font-family="Arial" font-size="16" fill="#333333">Session Expiry</text>
        <rect x="980" y="425" width="160" height="30" rx="4" fill="white" stroke="#e0e0e0" stroke-width="1"/>
        <text x="1000" y="445" font-family="Arial" font-size="14" fill="#333333">7 days</text>
        
        <!-- Setting 4 -->
        <rect x="560" y="490" width="600" height="60" rx="4" fill="#f5f5f5"/>
        <text x="580" y="525" font-family="Arial" font-size="16" fill="#333333">Default Storage Location</text>
        <rect x="980" y="505" width="160" height="30" rx="4" fill="white" stroke="#e0e0e0" stroke-width="1"/>
        <text x="1000" y="525" font-family="Arial" font-size="14" fill="#333333">Local</text>
      
  
  <!-- Footer -->
  <rect x="0" y="760" width="1280" height="40" fill="#f5f5f5"/>
  <text x="640" y="785" font-family="Arial" font-size="14" fill="#757575" text-anchor="middle">PSP v0.1.0 | Persistent Sessions Protocol</text>
</svg>
  